# xmcd CD database file
#
# Track frame offsets:
#	183
#	16950
#	38358
#	57633
#
# Disc length: 1013 seconds
#
# Revision: 0
# Processed by: cddbd v1.5.1PL0 Copyright (c) Steve Scherf et al.
# Submitted via: CDex 1.51
#
DISCID=2803f304
DTITLE=The Robert Cray Band - Don´t be afraid of the dark
DYEAR=1988
DGENRE=Rhythmic Soul
TTITLE0=Don´t be afraid of the dark
TTITLE1=Night Patrol
TTITLE2=Whitout a Trace
TTITLE3=Smoking Gun
EXTD=YEAR: 1988
EXTT0=
EXTT1=
EXTT2=
EXTT3=
PLAYORDER=
